<svg xmlns="http://www.w3.org/2000/svg" >
    <symbol id="mail-icon" viewBox="0 0 32 32"><path fill="#currentColor" d="M28 6H4a2 2 0 0 0-2 2v16a2 2 0 0 0 2 2h24a2 2 0 0 0 2-2V8a2 2 0 0 0-2-2Zm-2.2 2L16 14.78L6.2 8ZM4 24V8.91l11.43 7.91a1 1 0 0 0 1.14 0L28 8.91V24Z"/></symbol>

    <symbol id="phone-icon" viewBox="0 0 26 26">
        <path fill="currentColor" d="M22.386 18.026c-1.548-1.324-3.119-2.126-4.648-.804l-.913.799c-.668.58-1.91 3.29-6.712-2.234c-4.801-5.517-1.944-6.376-1.275-6.951l.918-.8c1.521-1.325.947-2.993-.15-4.71l-.662-1.04C7.842.573 6.642-.552 5.117.771l-.824.72c-.674.491-2.558 2.087-3.015 5.119c-.55 3.638 1.185 7.804 5.16 12.375c3.97 4.573 7.857 6.87 11.539 6.83c3.06-.033 4.908-1.675 5.486-2.272l.827-.721c1.521-1.322.576-2.668-.973-3.995l-.931-.801z"/>
    </symbol>

    <symbol id="cart-icon" viewBox="0 0 48 48" fill="#currentColor"><g fill="#currentColor" stroke="#ffffff" stroke-width="4"><path stroke-linejoin="round" d="M6 15h36l-2 27H8L6 15Z" clip-rule="evenodd"/><path stroke-linecap="round" stroke-linejoin="round" d="M16 19V6h16v13"/><path stroke-linecap="round" d="M16 34h16"/></g></symbol>

    <symbol id="3g" viewBox="0 0 24 24"><path fill="#000000" d="M3 7v2h5v2H4v2h4v2H3v2h5c1.1 0 2-.9 2-2v-1.5c0-.83-.67-1.5-1.5-1.5c.83 0 1.5-.67 1.5-1.5V9c0-1.1-.9-2-2-2H3zm18 4v4c0 1.1-.9 2-2 2h-5c-1.1 0-2-.9-2-2V9c0-1.1.9-2 2-2h5c1.1 0 2 .9 2 2h-7v6h5v-2h-2.5v-2H21z"/></symbol>

    <symbol id="cart" viewBox="0 0 24 24" fill="#currentColor"><g fill="none" stroke="#ffffff" stroke-linecap="round" stroke-linejoin="round"><path stroke-width="2.5" d="M7.537 21.25h.01m10.391 0h.011"/><path stroke-width="1.5" d="M4.628 6.526h13.097a4.001 4.001 0 0 1 1.543.237A1.734 1.734 0 0 1 20.29 7.88a3.716 3.716 0 0 1-.213 1.686c-.131.57-.25 1.188-.369 1.71a94.616 94.616 0 0 0-.736 3.562a2.92 2.92 0 0 1-.629 1.567a2.243 2.243 0 0 1-1.686.582H9.805a8.643 8.643 0 0 1-1.662 0a1.637 1.637 0 0 1-1.33-.985a16.623 16.623 0 0 1-.463-2.019c-.095-.534-.214-1.068-.332-1.603c-.416-1.983-.89-3.942-1.39-5.853m0 0C4.32 5.267 4 4.009 3.69 2.75M19.553 12H5.934"/></g></symbol>
</svg>